<mxfile host="app.diagrams.net" modified="2024-05-13T06:24:44.606Z" agent="Mozilla/5.0 (Windows NT 10.0; Win64; x64) AppleWebKit/537.36 (KHTML, like Gecko) Chrome/124.0.0.0 Safari/537.36 Edg/124.0.0.0" etag="rEwJP6O71oFHm5VbI04l" version="24.4.0" type="github">
  <diagram name="第 1 页" id="fjK7_YgIhAn6TB_3djok">
    <mxGraphModel dx="1676" dy="950" grid="1" gridSize="10" guides="1" tooltips="1" connect="1" arrows="1" fold="1" page="1" pageScale="1" pageWidth="827" pageHeight="1169" math="0" shadow="0">
      <root>
        <mxCell id="0" />
        <mxCell id="1" parent="0" />
        <mxCell id="ahnHF-ylKByHUjF6A2Pn-45" value="企业门户" style="swimlane;whiteSpace=wrap;html=1;" vertex="1" parent="1">
          <mxGeometry x="50" y="107" width="494" height="525" as="geometry" />
        </mxCell>
        <mxCell id="ahnHF-ylKByHUjF6A2Pn-46" style="edgeStyle=orthogonalEdgeStyle;rounded=0;orthogonalLoop=1;jettySize=auto;html=1;entryX=0;entryY=0.5;entryDx=0;entryDy=0;exitX=0.5;exitY=0;exitDx=0;exitDy=0;" edge="1" parent="ahnHF-ylKByHUjF6A2Pn-45" source="ahnHF-ylKByHUjF6A2Pn-47" target="ahnHF-ylKByHUjF6A2Pn-55">
          <mxGeometry relative="1" as="geometry" />
        </mxCell>
        <mxCell id="ahnHF-ylKByHUjF6A2Pn-47" value="应用服务器01" style="image;html=1;image=img/lib/clip_art/computers/Server_Rack_128x128.png" vertex="1" parent="ahnHF-ylKByHUjF6A2Pn-45">
          <mxGeometry x="76" y="159" width="80" height="80" as="geometry" />
        </mxCell>
        <mxCell id="ahnHF-ylKByHUjF6A2Pn-48" style="edgeStyle=orthogonalEdgeStyle;rounded=0;orthogonalLoop=1;jettySize=auto;html=1;entryX=1;entryY=0.5;entryDx=0;entryDy=0;exitX=0.5;exitY=0;exitDx=0;exitDy=0;" edge="1" parent="ahnHF-ylKByHUjF6A2Pn-45" source="ahnHF-ylKByHUjF6A2Pn-49" target="ahnHF-ylKByHUjF6A2Pn-55">
          <mxGeometry relative="1" as="geometry" />
        </mxCell>
        <mxCell id="ahnHF-ylKByHUjF6A2Pn-49" value="应用服务器02" style="image;html=1;image=img/lib/clip_art/computers/Server_Rack_128x128.png" vertex="1" parent="ahnHF-ylKByHUjF6A2Pn-45">
          <mxGeometry x="347" y="156" width="80" height="80" as="geometry" />
        </mxCell>
        <mxCell id="ahnHF-ylKByHUjF6A2Pn-50" style="edgeStyle=orthogonalEdgeStyle;rounded=0;orthogonalLoop=1;jettySize=auto;html=1;" edge="1" parent="ahnHF-ylKByHUjF6A2Pn-45" source="ahnHF-ylKByHUjF6A2Pn-52" target="ahnHF-ylKByHUjF6A2Pn-47">
          <mxGeometry relative="1" as="geometry" />
        </mxCell>
        <mxCell id="ahnHF-ylKByHUjF6A2Pn-51" style="edgeStyle=orthogonalEdgeStyle;rounded=0;orthogonalLoop=1;jettySize=auto;html=1;endArrow=classic;endFill=1;" edge="1" parent="ahnHF-ylKByHUjF6A2Pn-45" source="ahnHF-ylKByHUjF6A2Pn-52" target="ahnHF-ylKByHUjF6A2Pn-49">
          <mxGeometry relative="1" as="geometry" />
        </mxCell>
        <mxCell id="ahnHF-ylKByHUjF6A2Pn-52" value="&lt;div&gt;&lt;br&gt;&lt;/div&gt;负载均衡硬件设备" style="image;html=1;image=img/lib/clip_art/networking/Switch_128x128.png" vertex="1" parent="ahnHF-ylKByHUjF6A2Pn-45">
          <mxGeometry x="213" y="261" width="80" height="80" as="geometry" />
        </mxCell>
        <mxCell id="ahnHF-ylKByHUjF6A2Pn-53" style="edgeStyle=orthogonalEdgeStyle;rounded=0;orthogonalLoop=1;jettySize=auto;html=1;" edge="1" parent="ahnHF-ylKByHUjF6A2Pn-45" source="ahnHF-ylKByHUjF6A2Pn-54" target="ahnHF-ylKByHUjF6A2Pn-52">
          <mxGeometry relative="1" as="geometry" />
        </mxCell>
        <mxCell id="ahnHF-ylKByHUjF6A2Pn-54" value="用户" style="shape=mxgraph.cisco.computers_and_peripherals.terminal;html=1;pointerEvents=1;dashed=0;fillColor=#036897;strokeColor=#ffffff;strokeWidth=2;verticalLabelPosition=bottom;verticalAlign=top;align=center;outlineConnect=0;" vertex="1" parent="ahnHF-ylKByHUjF6A2Pn-45">
          <mxGeometry x="222.5" y="431" width="61" height="54" as="geometry" />
        </mxCell>
        <mxCell id="ahnHF-ylKByHUjF6A2Pn-55" value="Oracle数据库" style="image;html=1;image=img/lib/clip_art/computers/Database_128x128.png" vertex="1" parent="ahnHF-ylKByHUjF6A2Pn-45">
          <mxGeometry x="213" y="32" width="80" height="80" as="geometry" />
        </mxCell>
        <mxCell id="ahnHF-ylKByHUjF6A2Pn-56" value="企业官网" style="swimlane;whiteSpace=wrap;html=1;" vertex="1" parent="1">
          <mxGeometry x="632" y="112" width="494" height="525" as="geometry" />
        </mxCell>
        <mxCell id="ahnHF-ylKByHUjF6A2Pn-57" style="edgeStyle=orthogonalEdgeStyle;rounded=0;orthogonalLoop=1;jettySize=auto;html=1;entryX=0;entryY=0.5;entryDx=0;entryDy=0;exitX=0.5;exitY=0;exitDx=0;exitDy=0;" edge="1" parent="ahnHF-ylKByHUjF6A2Pn-56" source="ahnHF-ylKByHUjF6A2Pn-58" target="ahnHF-ylKByHUjF6A2Pn-66">
          <mxGeometry relative="1" as="geometry" />
        </mxCell>
        <mxCell id="ahnHF-ylKByHUjF6A2Pn-58" value="应用服务器01" style="image;html=1;image=img/lib/clip_art/computers/Server_Rack_128x128.png" vertex="1" parent="ahnHF-ylKByHUjF6A2Pn-56">
          <mxGeometry x="76" y="159" width="80" height="80" as="geometry" />
        </mxCell>
        <mxCell id="ahnHF-ylKByHUjF6A2Pn-59" style="edgeStyle=orthogonalEdgeStyle;rounded=0;orthogonalLoop=1;jettySize=auto;html=1;entryX=1;entryY=0.5;entryDx=0;entryDy=0;exitX=0.5;exitY=0;exitDx=0;exitDy=0;" edge="1" parent="ahnHF-ylKByHUjF6A2Pn-56" source="ahnHF-ylKByHUjF6A2Pn-60" target="ahnHF-ylKByHUjF6A2Pn-66">
          <mxGeometry relative="1" as="geometry" />
        </mxCell>
        <mxCell id="ahnHF-ylKByHUjF6A2Pn-60" value="应用服务器02" style="image;html=1;image=img/lib/clip_art/computers/Server_Rack_128x128.png" vertex="1" parent="ahnHF-ylKByHUjF6A2Pn-56">
          <mxGeometry x="347" y="156" width="80" height="80" as="geometry" />
        </mxCell>
        <mxCell id="ahnHF-ylKByHUjF6A2Pn-61" style="edgeStyle=orthogonalEdgeStyle;rounded=0;orthogonalLoop=1;jettySize=auto;html=1;" edge="1" parent="ahnHF-ylKByHUjF6A2Pn-56" source="ahnHF-ylKByHUjF6A2Pn-63" target="ahnHF-ylKByHUjF6A2Pn-58">
          <mxGeometry relative="1" as="geometry" />
        </mxCell>
        <mxCell id="ahnHF-ylKByHUjF6A2Pn-62" style="edgeStyle=orthogonalEdgeStyle;rounded=0;orthogonalLoop=1;jettySize=auto;html=1;endArrow=classic;endFill=1;" edge="1" parent="ahnHF-ylKByHUjF6A2Pn-56" source="ahnHF-ylKByHUjF6A2Pn-63" target="ahnHF-ylKByHUjF6A2Pn-60">
          <mxGeometry relative="1" as="geometry" />
        </mxCell>
        <mxCell id="ahnHF-ylKByHUjF6A2Pn-63" value="&lt;div&gt;&lt;br&gt;&lt;/div&gt;负载均衡硬件设备" style="image;html=1;image=img/lib/clip_art/networking/Switch_128x128.png" vertex="1" parent="ahnHF-ylKByHUjF6A2Pn-56">
          <mxGeometry x="213" y="261" width="80" height="80" as="geometry" />
        </mxCell>
        <mxCell id="ahnHF-ylKByHUjF6A2Pn-64" style="edgeStyle=orthogonalEdgeStyle;rounded=0;orthogonalLoop=1;jettySize=auto;html=1;" edge="1" parent="ahnHF-ylKByHUjF6A2Pn-56" source="ahnHF-ylKByHUjF6A2Pn-65" target="ahnHF-ylKByHUjF6A2Pn-63">
          <mxGeometry relative="1" as="geometry" />
        </mxCell>
        <mxCell id="ahnHF-ylKByHUjF6A2Pn-65" value="用户" style="shape=mxgraph.cisco.computers_and_peripherals.terminal;html=1;pointerEvents=1;dashed=0;fillColor=#036897;strokeColor=#ffffff;strokeWidth=2;verticalLabelPosition=bottom;verticalAlign=top;align=center;outlineConnect=0;" vertex="1" parent="ahnHF-ylKByHUjF6A2Pn-56">
          <mxGeometry x="222.5" y="431" width="61" height="54" as="geometry" />
        </mxCell>
        <mxCell id="ahnHF-ylKByHUjF6A2Pn-66" value="Mysql数据库" style="image;html=1;image=img/lib/clip_art/computers/Database_128x128.png" vertex="1" parent="ahnHF-ylKByHUjF6A2Pn-56">
          <mxGeometry x="213" y="32" width="80" height="80" as="geometry" />
        </mxCell>
        <mxCell id="ahnHF-ylKByHUjF6A2Pn-67" value="工团管理系统" style="swimlane;whiteSpace=wrap;html=1;" vertex="1" parent="1">
          <mxGeometry x="67" y="881" width="494" height="525" as="geometry" />
        </mxCell>
        <mxCell id="ahnHF-ylKByHUjF6A2Pn-68" style="edgeStyle=orthogonalEdgeStyle;rounded=0;orthogonalLoop=1;jettySize=auto;html=1;entryX=0;entryY=0.5;entryDx=0;entryDy=0;exitX=0.5;exitY=0;exitDx=0;exitDy=0;" edge="1" parent="ahnHF-ylKByHUjF6A2Pn-67" source="ahnHF-ylKByHUjF6A2Pn-69" target="ahnHF-ylKByHUjF6A2Pn-77">
          <mxGeometry relative="1" as="geometry" />
        </mxCell>
        <mxCell id="ahnHF-ylKByHUjF6A2Pn-69" value="Tomcat&amp;nbsp;WEB容器01" style="image;html=1;image=img/lib/clip_art/computers/Server_Rack_128x128.png" vertex="1" parent="ahnHF-ylKByHUjF6A2Pn-67">
          <mxGeometry x="76" y="159" width="80" height="80" as="geometry" />
        </mxCell>
        <mxCell id="ahnHF-ylKByHUjF6A2Pn-70" style="edgeStyle=orthogonalEdgeStyle;rounded=0;orthogonalLoop=1;jettySize=auto;html=1;entryX=1;entryY=0.5;entryDx=0;entryDy=0;exitX=0.5;exitY=0;exitDx=0;exitDy=0;" edge="1" parent="ahnHF-ylKByHUjF6A2Pn-67" source="ahnHF-ylKByHUjF6A2Pn-71" target="ahnHF-ylKByHUjF6A2Pn-77">
          <mxGeometry relative="1" as="geometry" />
        </mxCell>
        <mxCell id="ahnHF-ylKByHUjF6A2Pn-71" value="Tomcat&amp;nbsp;WEB容器02" style="image;html=1;image=img/lib/clip_art/computers/Server_Rack_128x128.png" vertex="1" parent="ahnHF-ylKByHUjF6A2Pn-67">
          <mxGeometry x="347" y="156" width="80" height="80" as="geometry" />
        </mxCell>
        <mxCell id="ahnHF-ylKByHUjF6A2Pn-72" style="edgeStyle=orthogonalEdgeStyle;rounded=0;orthogonalLoop=1;jettySize=auto;html=1;" edge="1" parent="ahnHF-ylKByHUjF6A2Pn-67" source="ahnHF-ylKByHUjF6A2Pn-74" target="ahnHF-ylKByHUjF6A2Pn-69">
          <mxGeometry relative="1" as="geometry" />
        </mxCell>
        <mxCell id="ahnHF-ylKByHUjF6A2Pn-73" style="edgeStyle=orthogonalEdgeStyle;rounded=0;orthogonalLoop=1;jettySize=auto;html=1;endArrow=classic;endFill=1;" edge="1" parent="ahnHF-ylKByHUjF6A2Pn-67" source="ahnHF-ylKByHUjF6A2Pn-74" target="ahnHF-ylKByHUjF6A2Pn-71">
          <mxGeometry relative="1" as="geometry" />
        </mxCell>
        <mxCell id="ahnHF-ylKByHUjF6A2Pn-74" value="&lt;div&gt;&lt;br&gt;&lt;/div&gt;负载均衡硬件设备" style="image;html=1;image=img/lib/clip_art/networking/Switch_128x128.png" vertex="1" parent="ahnHF-ylKByHUjF6A2Pn-67">
          <mxGeometry x="213" y="261" width="80" height="80" as="geometry" />
        </mxCell>
        <mxCell id="ahnHF-ylKByHUjF6A2Pn-75" style="edgeStyle=orthogonalEdgeStyle;rounded=0;orthogonalLoop=1;jettySize=auto;html=1;" edge="1" parent="ahnHF-ylKByHUjF6A2Pn-67" source="ahnHF-ylKByHUjF6A2Pn-76" target="ahnHF-ylKByHUjF6A2Pn-74">
          <mxGeometry relative="1" as="geometry" />
        </mxCell>
        <mxCell id="ahnHF-ylKByHUjF6A2Pn-76" value="用户" style="shape=mxgraph.cisco.computers_and_peripherals.terminal;html=1;pointerEvents=1;dashed=0;fillColor=#036897;strokeColor=#ffffff;strokeWidth=2;verticalLabelPosition=bottom;verticalAlign=top;align=center;outlineConnect=0;" vertex="1" parent="ahnHF-ylKByHUjF6A2Pn-67">
          <mxGeometry x="222.5" y="431" width="61" height="54" as="geometry" />
        </mxCell>
        <mxCell id="ahnHF-ylKByHUjF6A2Pn-77" value="Mysql数据库" style="image;html=1;image=img/lib/clip_art/computers/Database_128x128.png" vertex="1" parent="ahnHF-ylKByHUjF6A2Pn-67">
          <mxGeometry x="213" y="32" width="80" height="80" as="geometry" />
        </mxCell>
        <mxCell id="ahnHF-ylKByHUjF6A2Pn-78" value="&lt;p class=&quot;MsoNormal&quot;&gt;&lt;span style=&quot;mso-spacerun:&#39;yes&#39;;font-family:宋体;mso-ascii-font-family:Arial;&lt;br/&gt;mso-hansi-font-family:Arial;mso-bidi-font-family:&#39;Times New Roman&#39;;font-size:12.0000pt;&lt;br/&gt;mso-font-kerning:1.0000pt;&quot;&gt;公权力大数据监督应用平台&lt;/span&gt;&lt;/p&gt;" style="swimlane;whiteSpace=wrap;html=1;startSize=23;" vertex="1" parent="1">
          <mxGeometry x="632" y="895" width="494" height="525" as="geometry" />
        </mxCell>
        <mxCell id="ahnHF-ylKByHUjF6A2Pn-79" style="edgeStyle=orthogonalEdgeStyle;rounded=0;orthogonalLoop=1;jettySize=auto;html=1;entryX=0;entryY=0.5;entryDx=0;entryDy=0;exitX=0.5;exitY=0;exitDx=0;exitDy=0;" edge="1" parent="ahnHF-ylKByHUjF6A2Pn-78" source="ahnHF-ylKByHUjF6A2Pn-80" target="ahnHF-ylKByHUjF6A2Pn-88">
          <mxGeometry relative="1" as="geometry" />
        </mxCell>
        <mxCell id="ahnHF-ylKByHUjF6A2Pn-80" value="应用服务器01" style="image;html=1;image=img/lib/clip_art/computers/Server_Rack_128x128.png" vertex="1" parent="ahnHF-ylKByHUjF6A2Pn-78">
          <mxGeometry x="76" y="159" width="80" height="80" as="geometry" />
        </mxCell>
        <mxCell id="ahnHF-ylKByHUjF6A2Pn-81" style="edgeStyle=orthogonalEdgeStyle;rounded=0;orthogonalLoop=1;jettySize=auto;html=1;entryX=1;entryY=0.5;entryDx=0;entryDy=0;exitX=0.5;exitY=0;exitDx=0;exitDy=0;" edge="1" parent="ahnHF-ylKByHUjF6A2Pn-78" source="ahnHF-ylKByHUjF6A2Pn-82" target="ahnHF-ylKByHUjF6A2Pn-88">
          <mxGeometry relative="1" as="geometry" />
        </mxCell>
        <mxCell id="ahnHF-ylKByHUjF6A2Pn-82" value="应用服务器02" style="image;html=1;image=img/lib/clip_art/computers/Server_Rack_128x128.png" vertex="1" parent="ahnHF-ylKByHUjF6A2Pn-78">
          <mxGeometry x="347" y="156" width="80" height="80" as="geometry" />
        </mxCell>
        <mxCell id="ahnHF-ylKByHUjF6A2Pn-83" style="edgeStyle=orthogonalEdgeStyle;rounded=0;orthogonalLoop=1;jettySize=auto;html=1;" edge="1" parent="ahnHF-ylKByHUjF6A2Pn-78" source="ahnHF-ylKByHUjF6A2Pn-85" target="ahnHF-ylKByHUjF6A2Pn-80">
          <mxGeometry relative="1" as="geometry" />
        </mxCell>
        <mxCell id="ahnHF-ylKByHUjF6A2Pn-84" style="edgeStyle=orthogonalEdgeStyle;rounded=0;orthogonalLoop=1;jettySize=auto;html=1;endArrow=classic;endFill=1;" edge="1" parent="ahnHF-ylKByHUjF6A2Pn-78" source="ahnHF-ylKByHUjF6A2Pn-85" target="ahnHF-ylKByHUjF6A2Pn-82">
          <mxGeometry relative="1" as="geometry" />
        </mxCell>
        <mxCell id="ahnHF-ylKByHUjF6A2Pn-85" value="&lt;div&gt;&lt;br&gt;&lt;/div&gt;负载均衡硬件设备" style="image;html=1;image=img/lib/clip_art/networking/Switch_128x128.png" vertex="1" parent="ahnHF-ylKByHUjF6A2Pn-78">
          <mxGeometry x="213" y="261" width="80" height="80" as="geometry" />
        </mxCell>
        <mxCell id="ahnHF-ylKByHUjF6A2Pn-86" style="edgeStyle=orthogonalEdgeStyle;rounded=0;orthogonalLoop=1;jettySize=auto;html=1;" edge="1" parent="ahnHF-ylKByHUjF6A2Pn-78" source="ahnHF-ylKByHUjF6A2Pn-87" target="ahnHF-ylKByHUjF6A2Pn-85">
          <mxGeometry relative="1" as="geometry" />
        </mxCell>
        <mxCell id="ahnHF-ylKByHUjF6A2Pn-87" value="用户" style="shape=mxgraph.cisco.computers_and_peripherals.terminal;html=1;pointerEvents=1;dashed=0;fillColor=#036897;strokeColor=#ffffff;strokeWidth=2;verticalLabelPosition=bottom;verticalAlign=top;align=center;outlineConnect=0;" vertex="1" parent="ahnHF-ylKByHUjF6A2Pn-78">
          <mxGeometry x="222.5" y="431" width="61" height="54" as="geometry" />
        </mxCell>
        <mxCell id="ahnHF-ylKByHUjF6A2Pn-88" value="Mysql数据库" style="image;html=1;image=img/lib/clip_art/computers/Database_128x128.png" vertex="1" parent="ahnHF-ylKByHUjF6A2Pn-78">
          <mxGeometry x="213" y="32" width="80" height="80" as="geometry" />
        </mxCell>
      </root>
    </mxGraphModel>
  </diagram>
</mxfile>
